<svg width="783" height="495" viewBox="0 0 783 495" fill="none" xmlns="http://www.w3.org/2000/svg">
<path d="M21.3192 346.331C21.3192 346.331 -57.4108 393.831 87.7192 466.961C87.7192 466.961 119.719 407.601 84.3392 359.201C77.4771 349.764 67.3916 343.172 55.994 340.675C44.5964 338.177 32.6787 339.948 22.4992 345.651L21.3192 346.331Z" fill="#6FFF33"/>
<path d="M22.2292 345.331C22.2292 345.331 89.5993 396.881 87.7193 466.961" stroke="#535461" stroke-miterlimit="10"/>
<path d="M91.3791 469.661C91.3791 469.661 66.7091 385.901 96.0091 324.251C108.299 298.381 112.379 269.331 106.699 241.251C103.986 227.918 100.053 214.863 94.9491 202.251" stroke="#535461" stroke-width="2" stroke-miterlimit="10"/>
<path d="M113.149 163.341C113.149 173.601 94.5691 203.341 94.5691 203.341C94.5691 203.341 75.9791 173.571 75.9791 163.341C75.9217 160.864 76.3599 158.4 77.268 156.095C78.1762 153.79 79.536 151.69 81.2675 149.918C82.9989 148.146 85.0671 146.737 87.3506 145.776C89.634 144.815 92.0866 144.319 94.5641 144.319C97.0417 144.319 99.4942 144.815 101.778 145.776C104.061 146.737 106.129 148.146 107.861 149.918C109.592 151.69 110.952 153.79 111.86 156.095C112.768 158.4 113.207 160.864 113.149 163.341Z" fill="#6FFF33"/>
<path d="M143.909 220.201C138.329 228.821 106.549 243.701 106.549 243.701C106.549 243.701 107.119 208.611 112.699 200.001C115.409 195.934 119.612 193.098 124.398 192.106C129.183 191.115 134.167 192.048 138.27 194.703C142.372 197.359 145.265 201.523 146.32 206.295C147.375 211.067 146.509 216.063 143.909 220.201V220.201Z" fill="#6FFF33"/>
<path d="M142.559 317.371C133.399 321.991 98.4492 318.791 98.4492 318.791C98.4492 318.791 116.659 288.791 125.829 284.171C130.223 282.025 135.286 281.698 139.92 283.259C144.554 284.82 148.386 288.144 150.586 292.51C152.787 296.877 153.178 301.935 151.676 306.588C150.173 311.241 146.898 315.115 142.559 317.371V317.371Z" fill="#6FFF33"/>
<path d="M124.989 390.661C116.739 396.761 81.759 399.521 81.759 399.521C81.759 399.521 94.629 366.871 102.889 360.771C106.859 357.954 111.775 356.807 116.581 357.575C121.387 358.344 125.7 360.966 128.594 364.88C131.488 368.794 132.731 373.686 132.057 378.507C131.383 383.327 128.845 387.691 124.989 390.661V390.661Z" fill="#6FFF33"/>
<path d="M67.5192 245.691C74.8792 252.841 109.189 260.251 109.189 260.251C109.189 260.251 100.789 226.181 93.4192 219.031C91.6687 217.33 89.6004 215.991 87.3323 215.089C85.0642 214.188 82.6409 213.743 80.2005 213.778C77.7602 213.813 75.3507 214.329 73.1097 215.295C70.8686 216.262 68.8399 217.66 67.1392 219.411C65.4386 221.161 64.0994 223.229 63.1982 225.497C62.2969 227.766 61.8512 230.189 61.8865 232.629C61.9218 235.07 62.4374 237.479 63.4038 239.72C64.3703 241.961 65.7687 243.99 67.5192 245.691V245.691Z" fill="#6FFF33"/>
<path d="M48.0592 331.661C57.2192 336.291 92.1692 333.091 92.1692 333.091C92.1692 333.091 73.9592 303.091 64.7992 298.471C62.6143 297.313 60.2205 296.604 57.7579 296.383C55.2954 296.162 52.8135 296.435 50.4576 297.185C48.1017 297.936 45.9192 299.148 44.0377 300.752C42.1563 302.356 40.6137 304.32 39.5003 306.527C38.3868 308.735 37.725 311.142 37.5534 313.609C37.3818 316.075 37.7039 318.551 38.501 320.891C39.298 323.232 40.5539 325.39 42.1951 327.239C43.8363 329.088 45.8299 330.591 48.0592 331.661V331.661Z" fill="#6FFF33"/>
<path d="M40.6091 417.821C48.8591 423.921 83.8491 426.681 83.8491 426.681C83.8491 426.681 70.9691 394.031 62.7091 387.931C58.7395 385.114 53.8236 383.967 49.0173 384.735C44.211 385.504 39.8977 388.126 37.004 392.04C34.1103 395.954 32.8669 400.846 33.541 405.667C34.2151 410.487 36.7528 414.851 40.6091 417.821V417.821Z" fill="#6FFF33"/>
<path opacity="0.25" d="M113.149 163.341C113.149 173.601 94.5691 203.341 94.5691 203.341C94.5691 203.341 75.9791 173.571 75.9791 163.341C75.9217 160.864 76.3599 158.4 77.268 156.095C78.1762 153.79 79.536 151.69 81.2675 149.918C82.9989 148.146 85.0671 146.737 87.3506 145.776C89.634 144.815 92.0866 144.319 94.5641 144.319C97.0417 144.319 99.4942 144.815 101.778 145.776C104.061 146.737 106.129 148.146 107.861 149.918C109.592 151.69 110.952 153.79 111.86 156.095C112.768 158.4 113.207 160.864 113.149 163.341Z" fill="black"/>
<path opacity="0.25" d="M143.909 220.201C138.329 228.821 106.549 243.701 106.549 243.701C106.549 243.701 107.119 208.611 112.699 200.001C115.409 195.934 119.612 193.098 124.398 192.106C129.183 191.115 134.167 192.048 138.27 194.703C142.372 197.359 145.265 201.523 146.32 206.295C147.375 211.067 146.509 216.063 143.909 220.201V220.201Z" fill="black"/>
<path opacity="0.25" d="M142.559 317.371C133.399 321.991 98.4492 318.791 98.4492 318.791C98.4492 318.791 116.659 288.791 125.829 284.171C130.223 282.025 135.286 281.698 139.92 283.259C144.554 284.82 148.386 288.144 150.586 292.51C152.787 296.877 153.178 301.935 151.676 306.588C150.173 311.241 146.898 315.115 142.559 317.371V317.371Z" fill="black"/>
<path opacity="0.25" d="M124.989 390.661C116.739 396.761 81.759 399.521 81.759 399.521C81.759 399.521 94.629 366.871 102.889 360.771C106.859 357.954 111.775 356.807 116.581 357.575C121.387 358.344 125.7 360.966 128.594 364.88C131.488 368.794 132.731 373.686 132.057 378.507C131.383 383.327 128.845 387.691 124.989 390.661V390.661Z" fill="black"/>
<path opacity="0.25" d="M67.5192 245.691C74.8792 252.841 109.189 260.251 109.189 260.251C109.189 260.251 100.789 226.181 93.4192 219.031C91.6687 217.33 89.6004 215.991 87.3323 215.089C85.0642 214.188 82.6409 213.743 80.2005 213.778C77.7602 213.813 75.3507 214.329 73.1097 215.295C70.8686 216.262 68.8399 217.66 67.1392 219.411C65.4386 221.161 64.0994 223.229 63.1982 225.497C62.2969 227.766 61.8512 230.189 61.8865 232.629C61.9218 235.07 62.4374 237.479 63.4038 239.72C64.3703 241.961 65.7687 243.99 67.5192 245.691V245.691Z" fill="black"/>
<path opacity="0.25" d="M48.0592 331.661C57.2192 336.291 92.1692 333.091 92.1692 333.091C92.1692 333.091 73.9592 303.091 64.7992 298.471C62.6143 297.313 60.2205 296.604 57.7579 296.383C55.2954 296.162 52.8135 296.435 50.4576 297.185C48.1017 297.936 45.9192 299.148 44.0377 300.752C42.1563 302.356 40.6137 304.32 39.5003 306.527C38.3868 308.735 37.725 311.142 37.5534 313.609C37.3818 316.075 37.7039 318.551 38.501 320.891C39.298 323.232 40.5539 325.39 42.1951 327.239C43.8363 329.088 45.8299 330.591 48.0592 331.661V331.661Z" fill="black"/>
<path opacity="0.25" d="M40.6091 417.821C48.8591 423.921 83.8491 426.681 83.8491 426.681C83.8491 426.681 70.9691 394.031 62.7091 387.931C58.7395 385.114 53.8236 383.967 49.0173 384.735C44.211 385.504 39.8977 388.126 37.004 392.04C34.1103 395.954 32.8669 400.846 33.541 405.667C34.2151 410.487 36.7528 414.851 40.6091 417.821V417.821Z" fill="black"/>
<path d="M750.149 439.881C750.149 439.881 736.889 394.881 752.639 361.741C759.326 347.886 761.343 332.238 758.389 317.141C756.926 309.982 754.81 302.973 752.069 296.201" stroke="#535461" stroke-width="2" stroke-miterlimit="10"/>
<path d="M761.869 275.261C761.869 280.781 751.869 296.781 751.869 296.781C751.869 296.781 741.869 280.781 741.869 275.261C741.869 272.608 742.923 270.065 744.798 268.19C746.673 266.314 749.217 265.261 751.869 265.261C754.521 265.261 757.065 266.314 758.94 268.19C760.816 270.065 761.869 272.608 761.869 275.261Z" fill="#6FFF33"/>
<path d="M778.379 305.821C775.379 310.451 758.299 318.451 758.299 318.451C758.299 318.451 758.609 299.591 761.609 294.961C763.105 292.866 765.35 291.429 767.878 290.948C770.406 290.468 773.022 290.98 775.182 292.379C777.342 293.777 778.88 295.955 779.476 298.459C780.071 300.962 779.678 303.599 778.379 305.821V305.821Z" fill="#6FFF33"/>
<path d="M777.659 358.031C772.729 360.511 753.949 358.791 753.949 358.791C753.949 358.791 763.739 342.671 768.659 340.191C771.009 339.129 773.677 339.016 776.108 339.875C778.539 340.733 780.544 342.498 781.705 344.799C782.866 347.101 783.093 349.762 782.34 352.228C781.586 354.693 779.909 356.772 777.659 358.031V358.031Z" fill="#6FFF33"/>
<path d="M768.209 397.421C763.779 400.701 744.979 402.181 744.979 402.181C744.979 402.181 751.899 384.641 756.339 381.361C757.387 380.495 758.6 379.851 759.904 379.47C761.208 379.088 762.576 378.977 763.925 379.142C765.274 379.307 766.575 379.745 767.749 380.43C768.923 381.114 769.945 382.031 770.753 383.124C771.561 384.217 772.137 385.463 772.447 386.786C772.757 388.109 772.794 389.482 772.556 390.819C772.318 392.157 771.81 393.433 771.063 394.568C770.315 395.703 769.344 396.673 768.209 397.421V397.421Z" fill="#6FFF33"/>
<path d="M737.329 319.521C741.329 323.361 759.719 327.341 759.719 327.341C759.719 327.341 755.209 309.031 751.249 305.191C750.324 304.203 749.209 303.414 747.97 302.871C746.731 302.327 745.395 302.04 744.042 302.028C742.689 302.016 741.348 302.279 740.1 302.8C738.851 303.321 737.722 304.09 736.779 305.06C735.836 306.031 735.1 307.182 734.616 308.445C734.131 309.708 733.908 311.056 733.959 312.408C734.011 313.76 734.336 315.087 734.915 316.31C735.494 317.532 736.316 318.625 737.329 319.521V319.521Z" fill="#6FFF33"/>
<path d="M726.869 365.721C731.799 368.201 750.579 366.491 750.579 366.491C750.579 366.491 740.789 350.371 735.859 347.881C733.51 346.819 730.841 346.706 728.411 347.565C725.98 348.423 723.975 350.188 722.814 352.489C721.652 354.791 721.425 357.452 722.179 359.918C722.933 362.383 724.609 364.462 726.859 365.721H726.869Z" fill="#6FFF33"/>
<path d="M722.869 412.031C727.299 415.311 746.099 416.791 746.099 416.791C746.099 416.791 739.149 399.241 734.749 395.961C732.612 394.508 729.996 393.938 727.449 394.371C724.902 394.805 722.621 396.207 721.085 398.285C719.549 400.363 718.877 402.955 719.209 405.517C719.542 408.08 720.853 410.414 722.869 412.031V412.031Z" fill="#6FFF33"/>
<g opacity="0.5">
<path opacity="0.5" d="M493.679 309.791L479.149 241.391H480.639L480.409 240.231H480.829L473.309 203.231C473.309 203.231 473.689 164.581 475.519 149.631C476.859 138.721 478.979 124.821 477.429 113.121C477.643 112.798 477.84 112.464 478.019 112.121C478.661 110.876 479.048 109.516 479.159 108.121C479.72 104.85 479.28 101.487 477.899 98.4706L493.009 89.0306C493.349 89.0306 493.699 89.1006 494.009 89.1206C494.009 88.9806 493.869 88.7606 493.759 88.4706C500.908 88.8465 507.989 86.9295 513.972 82.9992C519.955 79.0689 524.526 73.3306 527.019 66.6206C528.35 68.6182 529.994 70.3876 531.889 71.8606C535.959 74.9106 542.369 75.5906 545.759 71.8006C546.994 70.288 547.829 68.4898 548.189 66.5706C548.389 65.7106 548.529 64.8306 548.649 63.9606C550.569 53.7406 546.359 43.2006 540.929 34.2406C534.139 23.0506 525.129 12.9206 513.679 6.56059C502.229 0.200594 488.179 -2.0794 475.789 2.1606C463.399 6.4006 450.919 17.9106 449.789 30.9606C449.229 37.6306 450.029 40.7206 448.649 47.2706C447.959 50.5306 449.449 56.8806 449.429 60.4806C449.308 61.1417 449.228 61.8096 449.189 62.4806C448.989 66.4806 450.579 70.2606 451.739 74.1006C435.399 74.9206 392.429 78.2306 380.019 90.8506C364.579 106.541 326.719 112.151 326.719 112.151L263.669 124.841L241.669 134.181L241.919 135.181L241.479 135.371C241.479 135.371 242.259 138.281 243.379 142.121C238.471 146.563 235.258 152.572 234.289 159.121C233.069 165.911 233.719 174.651 238.019 185.801C238.019 185.801 259.729 225.671 261.229 241.751L288.629 296.441C286.279 301.131 262.799 348.531 258.759 375.061C258.44 376.971 258.223 378.897 258.109 380.831C258.109 380.831 257.959 382.231 257.589 384.561C255.979 394.391 250.889 418.561 238.459 429.861L238.619 430.001L238.259 430.351L238.539 430.591C234.809 437.721 240.199 447.381 240.199 447.381L246.329 474.761L253.189 475.871L260.409 472.931L264.409 480.621C264.409 480.621 295.559 485.621 304.409 485.331C313.259 485.041 296.909 470.041 291.179 465.591C287.999 463.131 285.509 453.021 283.929 444.511C284.763 443.834 285.512 443.058 286.159 442.201C286.159 442.201 282.349 422.201 293.819 394.761C298.709 383.081 303.969 369.651 308.419 358.081C310.809 373.621 313.319 389.631 315.169 400.561C317.859 416.391 317.509 426.051 316.679 431.501C316.525 433.402 316.077 435.267 315.349 437.031C315.386 437.082 315.419 437.135 315.449 437.191C315.397 437.332 315.333 437.469 315.259 437.601C315.319 437.701 315.379 437.791 315.429 437.891C309.169 445.051 315.689 456.731 315.689 456.731L321.819 484.031L328.679 485.141L335.899 482.201L339.899 489.891C339.899 489.891 371.049 494.891 379.899 494.601C388.749 494.311 372.399 479.311 366.659 474.861C362.189 471.391 359.089 452.761 357.939 444.771C358.769 444.691 359.229 444.631 359.229 444.631L359.139 444.081H359.329L355.409 421.161C348.709 415.391 349.639 333.421 349.639 333.421C349.639 333.421 346.149 341.991 346.039 341.301C346.379 339.921 347.639 336.021 350.559 327.711C352.274 322.945 353.543 318.031 354.349 313.031C357.519 293.521 351.609 281.591 351.609 281.591C351.999 277.671 347.869 262.441 342.989 246.221L358.319 216.341C360.451 217.143 362.765 217.333 364.999 216.891L376.609 195.891C376.609 195.891 400.609 181.591 407.479 182.701C413.869 183.701 433.889 179.321 441.629 170.981C442.186 170.371 442.694 169.719 443.149 169.031C449.379 159.481 446.819 218.891 446.819 218.891L443.489 239.471L443.309 240.611L453.239 240.811L476.639 321.071C476.639 321.071 478.109 348.291 504.699 354.341C531.289 360.391 493.679 309.791 493.679 309.791ZM333.849 217.031C332.409 212.591 331.149 208.761 330.199 205.891L335.149 202.031C335.149 202.031 335.769 202.551 336.819 203.381L333.849 217.031Z" fill="url(#paint0_linear)"/>
</g>
<path d="M357.979 436.091C357.979 436.091 361.369 464.651 366.979 468.991C372.589 473.331 388.509 487.901 379.879 488.221C371.249 488.541 340.879 483.641 340.879 483.641L336.949 476.141L329.949 479.001L323.259 477.921L317.259 451.231C317.259 451.231 308.839 436.151 320.689 430.061C332.539 423.971 357.979 436.091 357.979 436.091Z" fill="#333333"/>
<path opacity="0.1" d="M329.489 201.941C329.489 201.941 353.039 272.031 352.149 281.031C352.149 281.031 360.779 298.431 351.259 325.481C341.739 352.531 350.259 331.611 350.259 331.611C350.259 331.611 349.359 411.501 355.879 417.131L359.699 439.471C359.699 439.471 322.979 443.831 316.799 432.541C316.799 432.541 321.579 424.171 316.899 396.541C312.219 368.911 303.199 308.031 303.199 308.031L278.759 169.161L329.489 201.941Z" fill="black"/>
<path d="M329.579 201.381C329.579 201.381 353.129 271.511 352.239 280.511C352.239 280.511 360.869 297.911 351.349 324.961C341.829 352.011 350.349 331.091 350.349 331.091C350.349 331.091 349.449 410.991 355.969 416.611L359.789 438.961C359.789 438.961 323.069 443.311 316.889 432.021C316.889 432.021 321.669 423.651 316.989 396.021C312.309 368.391 303.279 307.481 303.279 307.481L278.849 168.601L329.579 201.381Z" fill="#999999"/>
<path opacity="0.1" d="M284.909 172.241L308.859 308.381C308.859 308.381 317.859 369.291 322.569 396.921C327.279 424.551 322.469 432.921 322.469 432.921C324.269 436.211 328.639 438.161 333.939 439.291C326.499 438.421 319.789 436.391 317.449 432.111C317.449 432.111 322.239 423.741 317.559 396.111C312.879 368.481 303.849 307.571 303.849 307.571L279.409 168.691L284.909 172.241Z" fill="black"/>
<path d="M284.539 427.081C284.539 427.081 287.919 455.641 293.539 459.981C299.159 464.321 315.069 478.891 306.439 479.211C297.809 479.531 267.439 474.631 267.439 474.631L263.509 467.131L256.509 470.001L249.819 468.911L243.819 442.221C243.819 442.221 235.399 427.141 247.239 421.051C259.079 414.961 284.539 427.081 284.539 427.081Z" fill="#333333"/>
<path opacity="0.1" d="M329.489 201.941C329.489 201.941 353.039 272.031 352.149 281.031C352.149 281.031 360.779 298.431 351.259 325.481C341.739 352.531 350.259 331.611 350.259 331.611C350.259 331.611 349.359 411.501 355.879 417.131L359.699 439.471C359.699 439.471 322.979 443.831 316.799 432.541C316.799 432.541 321.579 424.171 316.899 396.541C312.219 368.911 303.199 308.031 303.199 308.031L278.759 169.161L329.489 201.941Z" fill="black"/>
<path opacity="0.1" d="M254.859 140.141C254.859 140.141 228.649 150.201 242.749 186.781C242.749 186.781 263.919 225.641 265.389 241.321L292.189 294.821C292.189 294.821 263.609 351.381 262.339 376.901C262.339 376.901 258.519 411.161 243.099 425.241C243.099 425.241 276.269 453.471 288.619 437.171C288.619 437.171 284.909 417.711 296.099 390.931C307.289 364.151 320.559 328.031 320.559 328.031C320.559 328.031 352.649 306.341 331.269 261.721L307.269 162.371L306.879 140.011L288.469 133.611L254.859 140.141Z" fill="black"/>
<path opacity="0.1" d="M253.659 140.511C253.659 140.511 227.449 150.571 241.549 187.151C241.549 187.151 262.709 226.021 264.179 241.701L290.979 295.201C290.979 295.201 262.399 351.751 261.149 377.281C261.149 377.281 257.329 411.531 241.899 425.621C241.899 425.621 275.069 453.851 287.429 437.551C287.429 437.551 283.709 418.081 294.899 391.311C306.089 364.541 319.359 328.371 319.359 328.371C319.359 328.371 351.459 306.681 330.079 262.061L306.079 162.711L305.689 140.351L287.289 133.951L253.659 140.511Z" fill="black"/>
<path d="M253.749 139.961C253.749 139.961 227.539 150.031 241.639 186.601C241.639 186.601 257.189 215.151 262.549 233.181C264.889 240.925 267.9 248.45 271.549 255.671L291.069 294.671C291.069 294.671 262.489 351.231 261.229 376.751C261.229 376.751 257.409 411.011 241.979 425.091C241.979 425.091 275.149 453.321 287.509 437.021C287.509 437.021 283.789 417.561 294.979 390.781C306.169 364.001 319.439 327.841 319.439 327.841C319.439 327.841 351.539 306.151 330.159 261.531L306.159 162.181L305.769 139.821L287.369 133.421L253.749 139.961Z" fill="#999999"/>
<path opacity="0.1" d="M253.749 139.961L287.399 133.391L291.789 134.921L260.439 141.031C260.439 141.031 234.229 151.091 248.329 187.671C248.329 187.671 263.869 216.221 269.239 234.251C271.579 241.995 274.59 249.52 278.239 256.741L297.769 295.741C297.769 295.741 269.149 352.281 267.919 377.801C267.919 377.801 264.089 412.061 248.669 426.141C248.669 426.141 262.959 438.301 276.269 442.051C261.589 441.751 241.979 425.051 241.979 425.051C257.409 410.971 261.229 376.711 261.229 376.711C262.489 351.191 291.069 294.631 291.069 294.631L271.549 255.631C267.9 248.41 264.889 240.885 262.549 233.141C257.189 215.141 241.639 186.561 241.639 186.561C227.539 150.031 253.749 139.961 253.749 139.961Z" fill="black"/>
<path d="M361.739 211.151L340.869 251.801C340.869 251.801 346.989 305.961 335.299 307.501C323.609 309.041 328.299 248.061 328.299 248.061L339.549 196.131L361.739 211.151Z" fill="#BE7C5E"/>
<path d="M475.809 237.591L490.729 308.031C490.729 308.031 527.349 357.401 501.429 351.501C475.509 345.601 474.079 319.031 474.079 319.031L449.079 233.231L475.809 237.591Z" fill="#BE7C5E"/>
<path d="M490.679 92.4806L453.779 115.681L440.609 80.3906C440.609 80.3906 471.149 82.4706 474.709 71.0406C478.269 59.6106 490.679 92.4806 490.679 92.4806Z" fill="#BE7C5E"/>
<path d="M471.729 107.151L469.369 97.0406L432.999 99.1706L418.349 157.981L445.639 158.961L460.919 135.131L469.249 111.891L471.729 107.151Z" fill="#BE7C5E"/>
<path opacity="0.1" d="M459.149 96.5406L462.149 79.5906C462.149 79.5906 394.839 80.4306 379.789 95.7206C364.739 111.011 327.839 116.491 327.839 116.491L266.379 128.851L244.889 137.961C244.889 137.961 250.949 160.661 253.549 162.231C256.149 163.801 285.169 139.891 285.169 139.891L296.169 142.811L260.349 180.471L326.459 245.471L327.679 209.651L336.149 203.031C336.149 203.031 356.279 220.031 365.259 217.451L376.579 196.981C376.579 196.981 399.979 183.041 406.669 184.121C412.899 185.121 432.419 180.831 439.959 172.701C440.488 172.131 440.97 171.519 441.399 170.871C447.479 161.561 444.979 219.471 444.979 219.471L441.559 240.641L478.029 241.391L470.709 205.331C470.709 205.331 471.079 167.661 472.859 153.081C474.639 138.501 477.859 118.451 471.329 105.951L458.489 118.171L436.149 154.031L444.629 122.811L459.149 96.5406Z" fill="black"/>
<path d="M459.339 95.4206L456.149 78.0306C456.149 78.0306 395.059 79.3106 380.009 94.6006C364.959 109.891 328.009 115.361 328.009 115.361L266.549 127.731L245.149 136.851C245.149 136.851 251.209 159.551 253.809 161.111C256.409 162.671 285.439 138.781 285.439 138.781L296.439 141.701L260.619 179.361L326.729 244.361L327.949 208.531L336.449 201.901C336.449 201.901 356.579 218.901 365.559 216.331L376.879 195.861C376.879 195.861 400.149 181.921 406.879 183.031C413.109 184.031 432.629 179.731 440.169 171.601C440.698 171.031 441.18 170.419 441.609 169.771C447.689 160.461 445.189 218.381 445.189 218.381L441.769 239.551L478.239 240.301L470.919 204.241C470.919 204.241 471.289 166.561 473.069 151.991C474.849 137.421 478.069 117.351 471.539 104.861L458.699 117.031L436.329 152.861L444.809 121.641L459.339 95.4206Z" fill="#4D82CD"/>
<path opacity="0.1" d="M382.289 117.561C382.289 117.561 345.879 148.271 342.069 164.811Z" fill="black"/>
<path opacity="0.1" d="M422.039 144.031C422.039 144.031 394.039 165.231 389.039 178.711Z" fill="black"/>
<path opacity="0.1" d="M340.269 175.951C340.269 175.951 337.639 188.671 337.119 195.451Z" fill="black"/>
<path opacity="0.1" d="M326.959 205.241C326.959 205.241 285.019 167.591 279.149 168.361Z" fill="black"/>
<path opacity="0.1" d="M475.149 71.6806C478.559 60.7406 490.079 90.4006 491.049 92.9506C489.954 92.8889 488.862 92.7687 487.779 92.5906C483.406 91.8908 479.221 90.3071 475.479 87.9362C471.738 85.5653 468.519 82.4568 466.019 78.8006C470.509 77.3906 474.089 75.1606 475.149 71.6806Z" fill="black"/>
<path d="M492.559 92.3706C510.641 92.3706 525.299 77.7124 525.299 59.6306C525.299 41.5488 510.641 26.8906 492.559 26.8906C474.477 26.8906 459.819 41.5488 459.819 59.6306C459.819 77.7124 474.477 92.3706 492.559 92.3706Z" fill="#BE7C5E"/>
<path opacity="0.1" d="M519.149 64.3506C521.719 68.5806 524.059 73.1706 528.029 76.1306C531.999 79.0906 538.249 79.7606 541.549 76.0706C542.749 74.5942 543.56 72.8409 543.909 70.9706C546.329 60.6606 542.099 49.9706 536.609 40.8806C529.989 29.9706 521.199 20.1006 510.049 13.8806C498.899 7.66059 485.189 5.45058 473.109 9.59058C461.029 13.7306 451.109 24.7906 450.109 37.5106C449.559 44.0106 451.199 50.6406 449.849 57.0306C449.149 60.3606 447.639 63.5306 447.469 66.9306C447.149 73.2406 451.469 79.1106 451.079 85.4206C450.839 89.3106 448.849 92.8406 447.629 96.5506C444.629 105.491 446.249 115.221 445.629 124.621C445.009 134.021 440.899 144.561 431.899 147.341C441.849 152.341 455.569 147.081 459.619 136.701C460.849 133.531 461.299 130.011 463.169 127.171C466.329 122.371 472.899 120.471 475.549 115.371C478.199 110.271 475.899 104.061 472.999 99.1106C470.099 94.1606 466.479 89.1806 466.419 83.4506C466.44 80.6527 467.313 77.9275 468.921 75.6375C470.528 73.3474 472.795 71.6011 475.419 70.6306C478.149 69.6806 481.099 69.6306 483.969 69.3106C491.089 68.396 497.89 65.8012 503.809 61.7406C511.499 56.7106 513.559 55.1506 519.149 64.3506Z" fill="black"/>
<path d="M519.359 62.9206C521.929 67.1606 524.269 71.7406 528.239 74.7106C532.209 77.6806 538.459 78.3406 541.759 74.6506C542.957 73.173 543.768 71.4202 544.119 69.5506C546.539 59.2406 542.309 48.5506 536.819 39.4606C530.199 28.5406 521.409 18.6806 510.259 12.4606C499.109 6.24058 485.399 4.04059 473.319 8.17059C461.239 12.3006 449.079 23.5306 448.009 36.2506C447.459 42.7506 448.249 45.7606 446.899 52.1406C446.199 55.4706 447.829 62.1406 447.659 65.5206C447.339 71.8306 451.659 77.7006 451.269 84.0106C451.029 87.9006 449.039 91.4306 447.819 95.1306C444.819 104.081 446.439 113.811 445.819 123.211C445.199 132.611 441.089 143.141 432.089 145.921C442.039 150.921 455.759 145.661 459.809 135.281C461.039 132.121 461.489 128.601 463.359 125.761C466.519 120.961 473.089 119.061 475.739 113.961C478.389 108.861 476.089 102.641 473.199 97.6906C470.309 92.7406 466.669 87.7706 466.609 82.0306C466.632 79.2344 467.506 76.5114 469.113 74.2234C470.721 71.9353 472.986 70.1905 475.609 69.2206C478.339 68.2706 481.289 68.2206 484.159 67.9006C491.278 66.9815 498.077 64.3872 503.999 60.3306C511.729 55.2806 513.789 53.7306 519.359 62.9206Z" fill="#723647"/>
<path d="M451.415 81.8731L465.304 84.1178C466.384 84.2922 467.4 83.5607 467.574 82.4839C467.748 81.4072 467.014 80.3928 465.935 80.2184L452.045 77.9737C450.965 77.7992 449.949 78.5307 449.775 79.6075C449.601 80.6843 450.335 81.6986 451.415 81.8731Z" fill="#252A62"/>
<path d="M422.789 358.231C423.019 373.891 436.229 386.231 451.889 386.231H454.069C455.995 386.224 457.846 386.971 459.229 388.311C460.278 389.293 461.007 390.568 461.319 391.971C461.468 392.535 461.542 393.117 461.539 393.701V421.351C461.529 426.667 463.049 431.875 465.919 436.351C470.095 442.691 472.358 450.099 472.439 457.691V457.691C472.439 459.463 472.792 461.217 473.477 462.852C474.162 464.486 475.167 465.967 476.431 467.209C477.695 468.451 479.194 469.429 480.841 470.085C482.487 470.741 484.247 471.062 486.019 471.031C493.339 470.901 499.079 464.601 499.079 457.271V450.361L502.719 450.781V457.711C502.72 459.481 503.074 461.233 503.759 462.865C504.445 464.497 505.448 465.976 506.712 467.216C507.975 468.456 509.472 469.432 511.117 470.087C512.761 470.742 514.519 471.062 516.289 471.031C523.619 470.901 529.359 464.601 529.359 457.271V453.771C532.989 455.291 553.579 455.291 559.289 453.771L560.839 453.651V457.651C560.834 459.426 561.182 461.185 561.865 462.824C562.548 464.463 563.552 465.949 564.817 467.195C566.081 468.441 567.582 469.423 569.231 470.081C570.88 470.74 572.644 471.063 574.419 471.031C581.739 470.901 587.479 464.601 587.479 457.271V451.531L588.689 451.421V457.721C588.693 459.49 589.049 461.242 589.736 462.872C590.423 464.503 591.428 465.981 592.692 467.22C593.955 468.459 595.453 469.433 597.097 470.088C598.742 470.742 600.5 471.062 602.269 471.031C605.497 470.922 608.58 469.664 610.963 467.484C613.346 465.305 614.873 462.346 615.269 459.141C615.345 458.52 615.385 457.896 615.389 457.271V428.351C615.4 418.416 612.072 408.766 605.939 400.951C604.877 399.567 604.282 397.882 604.24 396.138C604.199 394.394 604.713 392.683 605.709 391.251C612.489 381.321 622.519 364.561 622.189 352.681C622.258 349.459 621.129 346.326 619.019 343.891C618.889 343.741 618.749 343.601 618.619 343.461C608.859 333.241 591.679 341.281 593.169 355.331C593.676 360.036 593.337 364.794 592.169 369.381C591.493 371.969 590.579 374.49 589.439 376.911C588.298 379.34 586.422 381.348 584.076 382.653C581.731 383.958 579.035 384.492 576.369 384.181C574.558 383.959 572.734 383.849 570.909 383.851H514.909C511.622 383.852 508.417 382.823 505.745 380.91C503.072 378.996 501.067 376.293 500.009 373.181C499.44 371.551 499.153 369.837 499.159 368.111V324.511C499.16 323.375 498.932 322.25 498.49 321.204C498.047 320.158 497.399 319.211 496.584 318.42C495.769 317.63 494.803 317.01 493.744 316.6C492.685 316.189 491.555 315.996 490.419 316.031C489.311 316.071 488.222 316.333 487.217 316.802C486.212 317.271 485.312 317.937 484.569 318.761C483.053 320.431 482.212 322.605 482.209 324.861C482.211 325.451 482.095 326.035 481.87 326.58C481.645 327.126 481.314 327.621 480.897 328.038C480.48 328.456 479.984 328.786 479.439 329.011C478.894 329.237 478.309 329.352 477.719 329.351H451.249C447.476 329.35 443.741 330.1 440.26 331.556C436.78 333.013 433.623 335.147 430.975 337.834C428.327 340.522 426.239 343.709 424.834 347.21C423.429 350.712 422.734 354.458 422.789 358.231V358.231Z" fill="#B69469"/>
<path d="M589.149 461.031C589.899 463.934 591.606 466.5 593.994 468.314C596.382 470.129 599.311 471.085 602.309 471.031C605.537 470.922 608.62 469.664 611.003 467.484C613.386 465.305 614.913 462.346 615.309 459.141C607.149 456.971 595.969 455.471 589.149 461.031Z" fill="white"/>
<path d="M561.249 461.031C562.002 463.935 563.71 466.501 566.1 468.315C568.489 470.129 571.42 471.086 574.419 471.031C577.637 470.91 580.707 469.646 583.078 467.468C585.449 465.289 586.967 462.337 587.359 459.141C579.299 456.971 568.149 455.471 561.249 461.031Z" fill="white"/>
<path d="M503.149 461.031C503.899 463.934 505.606 466.5 507.994 468.314C510.382 470.129 513.311 471.085 516.309 471.031C519.537 470.922 522.62 469.664 525.003 467.484C527.386 465.305 528.913 462.346 529.309 459.141C521.149 456.971 509.989 455.471 503.149 461.031Z" fill="white"/>
<path d="M472.849 461.031C473.6 463.936 475.308 466.503 477.698 468.317C480.087 470.132 483.019 471.088 486.019 471.031C489.237 470.91 492.307 469.646 494.678 467.468C497.049 465.289 498.567 462.337 498.959 459.141C490.899 456.971 479.719 455.471 472.849 461.031Z" fill="white"/>
<path d="M592.089 369.381C601.499 365.601 612.979 358.681 622.089 352.681C622.158 349.459 621.029 346.326 618.919 343.891C618.789 343.741 618.649 343.601 618.519 343.461C608.759 333.241 591.579 341.281 593.069 355.331C593.582 360.035 593.25 364.793 592.089 369.381V369.381Z" fill="white"/>
<path d="M580.699 383.931C580.699 383.931 554.789 416.551 512.399 383.851Z" fill="white"/>
<path d="M499.079 323.301C499.079 323.301 483.339 343.891 499.079 369.301Z" fill="white"/>
<path d="M461.539 393.541C461.539 393.541 475.409 410.761 461.719 424.461Z" fill="white"/>
<path opacity="0.1" d="M460.329 389.901C461.329 390.901 461.009 391.801 461.329 393.221L506.329 381.431C503.909 379.561 500.899 377.351 499.909 374.431C494.529 378.581 483.859 385.601 460.329 389.901Z" fill="black"/>
<path d="M459.229 388.351C460.278 389.332 461.007 390.608 461.319 392.011L505.209 380.571C502.759 378.682 500.922 376.111 499.929 373.181C494.529 377.371 482.759 384.031 459.229 388.351Z" fill="#383F4D"/>
<path opacity="0.1" d="M498.279 375.601C498.279 375.601 484.549 385.931 461.539 389.131Z" fill="black"/>
<path d="M498.279 374.391C498.279 374.391 484.549 384.721 461.539 387.921Z" fill="#F3AD55"/>
<path opacity="0.1" d="M463.959 375.371C463.959 375.371 440.959 382.641 434.899 359.631L463.959 375.371Z" fill="black"/>
<path d="M463.959 379.772C463.959 379.772 440.959 389.634 434.899 358.421L463.959 379.772Z" fill="white"/>
<path d="M422.789 365.631C424.126 365.631 425.209 362.389 425.209 358.391C425.209 354.392 424.126 351.151 422.789 351.151C421.453 351.151 420.369 354.392 420.369 358.391C420.369 362.389 421.453 365.631 422.789 365.631Z" fill="#383F4D"/>
<path opacity="0.1" d="M606.249 448.581L601.409 403.831C601.409 403.831 615.939 430.392 606.249 448.581Z" fill="black"/>
<path d="M600.199 403.831C600.199 403.831 614.729 430.392 605.039 448.581L600.199 403.831Z" fill="white"/>
<defs>
<linearGradient id="paint0_linear" x1="225.185" y1="215.558" x2="528.006" y2="264.496" gradientUnits="userSpaceOnUse">
<stop stop-color="#808080" stop-opacity="0.25"/>
<stop offset="0.54" stop-color="#808080" stop-opacity="0.12"/>
<stop offset="1" stop-color="#808080" stop-opacity="0.1"/>
</linearGradient>
</defs>
</svg>
