<?xml version="1.0" standalone="no"?><svg xmlns="http://www.w3.org/2000/svg" viewBox="0 0 1440 320"><path fill="#ffffff" fill-opacity="1" d="M0,224L26.7,197.3C53.3,171,107,117,160,128C213.3,139,267,213,320,208C373.3,203,427,117,480,69.3C533.3,21,587,11,640,42.7C693.3,75,747,149,800,192C853.3,235,907,245,960,208C1013.3,171,1067,85,1120,64C1173.3,43,1227,85,1280,106.7C1333.3,128,1387,128,1413,128L1440,128L1440,320L1413.3,320C1386.7,320,1333,320,1280,320C1226.7,320,1173,320,1120,320C1066.7,320,1013,320,960,320C906.7,320,853,320,800,320C746.7,320,693,320,640,320C586.7,320,533,320,480,320C426.7,320,373,320,320,320C266.7,320,213,320,160,320C106.7,320,53,320,27,320L0,320Z"></path></svg>